<?xml version="1.0" encoding="iso-8859-1"?>
<!-- Generator: Adobe Illustrator 19.0.0, SVG Export Plug-In . SVG Version: 6.00 Build 0)  -->
<svg version="1.1" id="Capa_1" xmlns="http://www.w3.org/2000/svg" xmlns:xlink="http://www.w3.org/1999/xlink" x="0px" y="0px"
	 viewBox="0 0 512 512" style="enable-background:new 0 0 512 512;" xml:space="preserve">
<g>
	<g>
		<path fill="#fff" d="M493.929,237.927H409.6c-6.795,0-13.011,3.813-16.095,9.866l-71.325,139.794L209.769,72.84
			c-2.427-6.795-8.656-11.493-15.854-11.957c-7.21-0.5-13.981,3.391-17.257,9.818L91.335,237.933H18.071
			C8.09,237.933,0,246.029,0,256.003c0,9.975,8.09,18.071,18.071,18.071h84.335c6.789,0,13.005-3.813,16.095-9.861l71.319-139.794
			l112.411,314.748c2.427,6.794,8.662,11.493,15.854,11.957c0.391,0.024,0.783,0.036,1.169,0.036c6.752,0,12.987-3.783,16.089-9.854
			l85.323-167.237h73.264c9.981,0,18.071-8.09,18.071-18.071S503.91,237.927,493.929,237.927z"/>
	</g>
</g>

</svg>
