<?xml version="1.0" standalone="no"?>
<!DOCTYPE svg PUBLIC "-//W3C//DTD SVG 20010904//EN"
 "http://www.w3.org/TR/2001/REC-SVG-20010904/DTD/svg10.dtd">
<svg version="1.0" xmlns="http://www.w3.org/2000/svg"
 width="420.000000pt" height="420.000000pt" viewBox="0 0 420.000000 420.000000"
 preserveAspectRatio="xMidYMid meet">
<metadata>
Created by potrace 1.14, written by Peter Selinger 2001-2017
</metadata>
<g transform="translate(0.000000,420.000000) scale(0.100000,-0.100000)"
fill="#000000" stroke="none">
<path d="M2007 3654 c-1 -1 -35 -5 -76 -8 -147 -13 -340 -67 -491 -137 -430
-202 -752 -597 -859 -1055 -32 -138 -36 -183 -35 -379 0 -199 18 -307 76 -480
53 -160 168 -367 270 -489 90 -108 234 -240 335 -306 l48 -31 -49 43 c-282
246 -452 544 -504 884 -14 95 -7 373 12 464 78 375 287 686 604 899 70 47 258
141 282 141 9 0 20 4 25 9 14 13 208 58 285 67 115 13 322 8 421 -11 503 -97
912 -455 1069 -935 54 -165 65 -238 64 -435 0 -195 -16 -295 -69 -449 -84
-243 -247 -477 -440 -631 -90 -71 -86 -73 11 -6 234 162 438 410 547 667 44
103 88 247 102 335 3 19 9 59 14 89 17 100 7 383 -18 497 -90 426 -327 775
-682 1006 -209 135 -440 218 -681 243 -56 6 -256 12 -261 8z"/>
<path d="M1955 3079 c-103 -14 -130 -20 -224 -51 -416 -137 -723 -489 -804
-921 -21 -113 -20 -312 3 -427 20 -100 53 -208 76 -250 l14 -25 -5 25 c-21
101 -26 294 -10 370 3 14 8 41 11 60 51 295 268 592 549 750 98 55 259 109
375 126 67 10 248 11 300 3 25 -4 63 -11 85 -14 51 -9 171 -49 242 -81 123
-57 205 -116 319 -229 170 -169 279 -389 311 -626 13 -100 6 -311 -13 -364 -5
-14 -4 -17 4 -10 6 6 24 51 41 100 97 292 76 633 -56 900 -135 271 -367 486
-643 593 -60 24 -182 57 -245 68 -57 9 -271 12 -330 3z"/>
<path d="M1981 2364 c-148 -40 -262 -128 -330 -255 -145 -268 -20 -605 264
-717 62 -25 112 -33 190 -33 221 1 407 137 478 349 88 261 -49 544 -310 639
-85 31 -214 38 -292 17z"/>
<path d="M1429 2209 c-13 -17 -29 -36 -34 -42 -51 -59 -119 -200 -147 -306
-16 -58 -21 -108 -22 -216 -1 -136 4 -170 39 -280 93 -288 335 -508 640 -582
76 -18 251 -24 335 -11 178 27 349 115 479 248 77 77 86 88 127 155 88 145
124 268 129 435 6 201 -37 353 -144 517 -68 103 -107 144 -74 78 56 -110 81
-228 78 -357 -3 -93 -8 -131 -32 -203 -81 -252 -293 -443 -553 -499 -89 -20
-265 -14 -350 12 -254 76 -442 267 -511 519 -47 171 -21 409 57 531 24 36 10
37 -17 1z"/>
</g>
</svg>
