<?xml version="1.0"?>
<svg xmlns="http://www.w3.org/2000/svg" xmlns:xlink="http://www.w3.org/1999/xlink" xmlns:svgjs="http://svgjs.com/svgjs" version="1.1" width="512" height="512" x="0" y="0" viewBox="0 0 512.0005 512" style="enable-background:new 0 0 512 512" xml:space="preserve" class=""><g><path xmlns="http://www.w3.org/2000/svg" d="m248 360c11.046875 0 20 8.953125 20 20s-8.953125 20-20 20h-28c-11.046875 0-20-8.953125-20-20s8.953125-20 20-20zm164-107c0-11.046875-8.953125-20-20-20h-172c-11.046875 0-20 8.953125-20 20s8.953125 20 20 20h172c11.046875 0 20-8.953125 20-20zm-192-100h172c11.046875 0 20-8.953125 20-20s-8.953125-20-20-20h-172c-11.046875 0-20 8.953125-20 20s8.953125 20 20 20zm-80 207h-20c-11.046875 0-20 8.953125-20 20s8.953125 20 20 20h20c11.046875 0 20-8.953125 20-20s-8.953125-20-20-20zm0-127h-20c-11.046875 0-20 8.953125-20 20s8.953125 20 20 20h20c11.046875 0 20-8.953125 20-20s-8.953125-20-20-20zm0-120h-20c-11.046875 0-20 8.953125-20 20s8.953125 20 20 20h20c11.046875 0 20-8.953125 20-20s-8.953125-20-20-20zm366.144531 364.855469c7.808594 7.8125 7.808594 20.476562 0 28.285156-3.90625 3.90625-9.027343 5.859375-14.144531 5.859375s-10.238281-1.953125-14.144531-5.855469l-33.832031-33.832031c-13.472657 8.050781-29.214844 12.6875-46.023438 12.6875-49.625 0-90-40.375-90-90s40.375-90 90-90 90 40.375 90 90c0 18.363281-5.53125 35.453125-15.011719 49.707031zm-108.144531-32.855469c27.570312 0 50-22.429688 50-50s-22.429688-50-50-50-50 22.429688-50 50 22.429688 50 50 50zm34-445h-352c-44.113281 0-80 35.886719-80 80v352c0 44.113281 35.886719 80 80 80h206c11.046875 0 20-8.953125 20-20s-8.953125-20-20-20h-206c-22.054688 0-40-17.945312-40-40v-352c0-22.054688 17.945312-40 40-40h352c22.054688 0 40 17.945312 40 40v198c0 11.046875 8.953125 20 20 20s20-8.953125 20-20v-198c0-44.113281-35.886719-80-80-80zm0 0" fill="#ffffff" data-original="#000000" style=""/></g></svg>
