<?xml version="1.0"?>
<svg xmlns="http://www.w3.org/2000/svg" xmlns:xlink="http://www.w3.org/1999/xlink" xmlns:svgjs="http://svgjs.com/svgjs" version="1.1" width="512" height="512" x="0" y="0" viewBox="0 0 24 24" style="enable-background:new 0 0 512 512" xml:space="preserve" class=""><g><path xmlns="http://www.w3.org/2000/svg" d="m23.25 9h-22.5c-.414 0-.75-.336-.75-.75v-5.5c0-1.517 1.233-2.75 2.75-2.75h18.5c1.517 0 2.75 1.233 2.75 2.75v5.5c0 .414-.336.75-.75.75zm-21.75-1.5h21v-4.75c0-.689-.561-1.25-1.25-1.25h-18.5c-.689 0-1.25.561-1.25 1.25z" fill="#ffffff" data-original="#000000" style="" class=""/><path xmlns="http://www.w3.org/2000/svg" d="m23.25 16.5h-22.5c-.414 0-.75-.336-.75-.75v-7.5c0-.414.336-.75.75-.75h22.5c.414 0 .75.336.75.75v7.5c0 .414-.336.75-.75.75zm-21.75-1.5h21v-6h-21z" fill="#ffffff" data-original="#000000" style="" class=""/><path xmlns="http://www.w3.org/2000/svg" d="m21.25 24h-18.5c-1.517 0-2.75-1.233-2.75-2.75v-5.5c0-.414.336-.75.75-.75h22.5c.414 0 .75.336.75.75v5.5c0 1.517-1.233 2.75-2.75 2.75zm-19.75-7.5v4.75c0 .689.561 1.25 1.25 1.25h18.5c.689 0 1.25-.561 1.25-1.25v-4.75z" fill="#ffffff" data-original="#000000" style="" class=""/><circle xmlns="http://www.w3.org/2000/svg" cx="20" cy="20" r="1" fill="#ffffff" data-original="#000000" style="" class=""/><circle xmlns="http://www.w3.org/2000/svg" cx="16" cy="20" r="1" fill="#ffffff" data-original="#000000" style="" class=""/><circle xmlns="http://www.w3.org/2000/svg" cx="12" cy="20" r="1" fill="#ffffff" data-original="#000000" style="" class=""/><circle xmlns="http://www.w3.org/2000/svg" cx="20" cy="12" r="1" fill="#ffffff" data-original="#000000" style="" class=""/><circle xmlns="http://www.w3.org/2000/svg" cx="16" cy="12" r="1" fill="#ffffff" data-original="#000000" style="" class=""/><circle xmlns="http://www.w3.org/2000/svg" cx="12" cy="12" r="1" fill="#ffffff" data-original="#000000" style="" class=""/><circle xmlns="http://www.w3.org/2000/svg" cx="20" cy="5" r="1" fill="#ffffff" data-original="#000000" style="" class=""/><circle xmlns="http://www.w3.org/2000/svg" cx="16" cy="5" r="1" fill="#ffffff" data-original="#000000" style="" class=""/><circle xmlns="http://www.w3.org/2000/svg" cx="12" cy="5" r="1" fill="#ffffff" data-original="#000000" style="" class=""/></g></svg>
