<svg width="106" height="106" viewBox="0 0 106 106" fill="none" xmlns="http://www.w3.org/2000/svg">
<path d="M53 0C23.7771 0 0 23.7771 0 53C0 82.2229 23.7771 106 53 106C82.2229 106 106 82.2229 106 53C106 23.7771 82.2229 0 53 0ZM90.524 25.8574C84.8132 28.1231 78.9435 29.9185 72.9214 31.0977C70.3641 22.6774 66.303 14.6147 60.7248 7.32063C72.9413 9.38763 83.528 16.218 90.524 25.8574ZM67.999 67.4425C58.0482 66.0778 47.9451 66.0778 37.9944 67.4425C35.9539 57.9423 35.9472 48.1108 37.9811 38.6039C42.9234 39.2796 47.9186 39.75 53 39.75C58.0814 39.75 63.07 39.2796 68.0122 38.6039C70.0461 48.1108 70.0395 57.9423 67.999 67.4425ZM66.2831 32.1246C57.4653 33.2641 48.5281 33.2641 39.7102 32.1246C42.4265 23.6049 46.8653 15.529 53 8.374C59.1347 15.529 63.5669 23.6049 66.2831 32.1246ZM45.262 7.32063C39.6837 14.6147 35.6293 22.6774 33.072 31.0977C27.0565 29.9185 21.1867 28.1231 15.476 25.8574C22.4654 16.218 33.0521 9.38763 45.262 7.32063ZM6.625 53C6.625 45.2752 8.55288 38.001 11.9051 31.588C18.2386 34.1916 24.7378 36.2387 31.4224 37.5836C29.2958 47.7662 29.2957 58.2801 31.429 68.4694C24.751 69.801 18.2254 71.8349 11.9051 74.4319C8.55288 68.0056 6.625 60.7314 6.625 53ZM15.476 80.1426C21.1867 77.8769 27.0565 76.0815 33.072 74.9022C35.6293 83.3226 39.6904 91.3853 45.2686 98.6794C33.0521 96.6124 22.4654 89.782 15.476 80.1426ZM39.7169 73.8754C48.5281 72.7359 57.4653 72.7359 66.2831 73.8754C63.5669 82.3951 59.1281 90.471 53 97.626C46.8653 90.471 42.4331 82.3951 39.7169 73.8754ZM60.7248 98.6794C66.303 91.3853 70.3641 83.3226 72.9214 74.9022C78.9369 76.0815 84.8132 77.8835 90.524 80.1426C83.528 89.782 72.9413 96.6124 60.7248 98.6794ZM74.5644 68.4561C76.6976 58.2735 76.7042 47.7596 74.571 37.577C81.2556 36.2321 87.7614 34.1916 94.0949 31.5814C97.4471 38.001 99.375 45.2752 99.375 53C99.375 60.7314 97.4471 68.0056 94.0949 74.4186C87.7746 71.8282 81.249 69.7944 74.5644 68.4561Z" fill="white"/>
</svg>
