<svg width="235" height="104" viewBox="0 0 235 104" fill="none" xmlns="http://www.w3.org/2000/svg">
<path d="M46.1288 74.7143H27.2774L21.5649 104H11.3537L17.0662 74.7143H0V64.9286H18.9228L23.8499 39.6429H5.42692V29.7143H25.7779L31.6332 0H41.8444L35.9891 29.7143H54.8405L60.6958 0H70.9784L65.1231 29.7143H79.6901V39.6429H63.1951L58.268 64.9286H74.3346V74.7143H56.4114L50.6989 104H40.4163L46.1288 74.7143ZM29.134 64.9286H47.9854L52.9125 39.6429H34.0611L29.134 64.9286Z" fill="white"/>
<path d="M129.461 48.2143H158.452V60.7143H129.461V93.5714H116.179V60.7143H87.1878V48.2143H116.179V17.8571H129.461V48.2143Z" fill="white"/>
<path d="M235 45.8571H175.447V34.3571H235V45.8571ZM235 75.5H175.447V64.0714H235V75.5Z" fill="white"/>
</svg>
