<svg width="300" height="450" viewBox="0 0 300 450" fill="none" xmlns="http://www.w3.org/2000/svg">
<rect width="300" height="450" fill="#3E3E3E"/>
<path d="M176.674 276.11C193.568 266.723 205 248.697 205 228C205 197.624 180.376 173 150 173C119.624 173 95 197.624 95 228C95 248.697 106.432 266.723 123.326 276.11C109.887 267.372 101 252.224 101 235C101 207.938 122.938 186 150 186C177.062 186 199 207.938 199 235C199 252.224 190.113 267.372 176.674 276.11Z" fill="#5A5A5A"/>
<path d="M187.955 253.008C190.549 247.55 192 241.445 192 235C192 211.804 173.196 193 150 193C126.804 193 108 211.804 108 235C108 241.445 109.451 247.55 112.045 253.008C111.362 250.116 111 247.1 111 244C111 222.461 128.461 205 150 205C171.539 205 189 222.461 189 244C189 247.1 188.638 250.116 187.955 253.008Z" fill="#5A5A5A"/>
<path d="M150 262C164.359 262 176 250.359 176 236C176 230.93 174.549 226.198 172.039 222.199C177.579 227.799 181 235.5 181 244C181 261.121 167.121 275 150 275C132.879 275 119 261.121 119 244C119 235.5 122.421 227.799 127.961 222.199C125.451 226.198 124 230.93 124 236C124 250.359 135.641 262 150 262Z" fill="#5A5A5A"/>
<path d="M168 236C168 245.941 159.941 254 150 254C140.059 254 132 245.941 132 236C132 226.059 140.059 218 150 218C159.941 218 168 226.059 168 236Z" fill="#5A5A5A"/>
</svg>
