<svg width="268" height="105" viewBox="0 0 268 105" fill="none" xmlns="http://www.w3.org/2000/svg">
<path d="M66.2291 76.9251H23.478L13.8766 103.596H0L38.9665 1.40374H50.7406L89.7772 103.596H75.9707L66.2291 76.9251ZM27.5429 65.8356H62.2343L44.8536 18.0381L27.5429 65.8356Z" fill="white"/>
<path d="M103.514 103.596V1.40374H136.873C147.947 1.40374 156.263 3.69652 161.823 8.28209C167.43 12.8676 170.233 19.6524 170.233 28.6364C170.233 33.4091 168.878 37.6437 166.168 41.3402C163.459 44.99 159.767 47.8209 155.095 49.8329C160.608 51.377 164.954 54.3249 168.131 58.6765C171.355 62.9813 172.967 68.1283 172.967 74.1176C172.967 83.2888 170 90.4947 164.066 95.7353C158.132 100.976 149.745 103.596 138.906 103.596H103.514ZM116.97 55.7988V92.5769H139.186C145.447 92.5769 150.376 90.9626 153.974 87.734C157.618 84.4586 159.44 79.9666 159.44 74.258C159.44 61.9519 152.759 55.7988 139.396 55.7988H116.97ZM116.97 44.99H137.294C143.181 44.99 147.877 43.516 151.381 40.5682C154.932 37.6203 156.707 33.6197 156.707 28.5662C156.707 22.9512 155.072 18.8803 151.801 16.3536C148.531 13.7801 143.555 12.4933 136.873 12.4933H116.97V44.99Z" fill="white"/>
<path d="M268 71.1698C266.738 81.9786 262.744 90.3309 256.016 96.2266C249.334 102.076 240.434 105 229.314 105C217.259 105 207.588 100.672 200.299 92.0154C193.057 83.359 189.436 71.7781 189.436 57.2727V47.4465C189.436 37.9479 191.118 29.5956 194.482 22.3897C197.893 15.1838 202.705 9.66243 208.919 5.82553C215.134 1.94184 222.329 0 230.505 0C241.345 0 250.035 3.04144 256.576 9.12433C263.117 15.1604 266.925 23.5361 268 34.2513H254.474C253.306 26.1096 250.759 20.2139 246.835 16.5642C242.957 12.9144 237.514 11.0896 230.505 11.0896C221.908 11.0896 215.157 14.2714 210.251 20.635C205.392 26.9987 202.962 36.0528 202.962 47.7975V57.6939C202.962 68.7834 205.275 77.6036 209.901 84.1544C214.526 90.7052 220.997 93.9806 229.314 93.9806C236.789 93.9806 242.513 92.2961 246.484 88.9271C250.502 85.5114 253.166 79.5922 254.474 71.1698H268Z" fill="white"/>
</svg>
