<svg width="139" height="105" viewBox="0 0 139 105" fill="none" xmlns="http://www.w3.org/2000/svg">
<path d="M125.969 0.375122H47.5564C43.6325 0.375122 39.955 2.11446 37.4647 5.15569L0.979756 49.7513C-0.326911 51.3503 -0.326911 53.6496 0.979756 55.2486L37.469 99.8486C39.9546 102.886 43.6325 104.625 47.5564 104.625H125.969C133.155 104.625 139 98.7792 139 91.5936V13.4063C139 6.22026 133.155 0.375122 125.969 0.375122V0.375122ZM130.313 91.5936C130.313 93.9904 128.365 95.9372 125.969 95.9372H47.5564C46.2458 95.9372 45.0197 95.356 44.1925 94.3464L9.95578 52.4997L44.1881 10.6574C45.0197 9.64349 46.2454 9.06227 47.5564 9.06227H125.969C128.365 9.06227 130.312 11.0095 130.312 13.4058C130.313 13.4063 130.313 91.5936 130.313 91.5936V91.5936Z" fill="white"/>
<path d="M96.8349 27.71L78.1873 46.3576L59.5397 27.71L53.3975 33.8522L72.0451 52.4998L53.3975 71.1474L59.5397 77.2897L78.1873 58.6421L96.8349 77.2897L102.977 71.1474L84.3296 52.4998L102.977 33.8522L96.8349 27.71Z" fill="white"/>
</svg>
