<?xml version="1.0" encoding="iso-8859-1"?>
<!-- Generator: Adobe Illustrator 19.0.0, SVG Export Plug-In . SVG Version: 6.00 Build 0)  -->
<svg version="1.1" id="Capa_1" xmlns="http://www.w3.org/2000/svg" xmlns:xlink="http://www.w3.org/1999/xlink" x="0px" y="0px"
	 viewBox="0 0 512 512" style="enable-background:new 0 0 512 512;" xml:space="preserve">
<g>
	<g>
		<g>
			<path fill="#fff" d="M162.079,399.879c-0.168,0.18-0.336,0.359-0.501,0.538C151.46,411.301,159.216,429,174.082,429h163.836
				c14.866,0,22.622-17.699,12.506-28.583c-0.166-0.178-0.333-0.358-0.501-0.538c-15.212-16.263-72.47-64.578-73.207-65.211
				c-11.922-10.225-29.509-10.225-41.43,0C234.549,335.3,177.291,383.616,162.079,399.879z"/>
			<path fill="#fff" d="M334.127,240.903c4.767-4.147,10.218-8.729,15.99-13.581C392.692,191.533,451,142.519,451,91V60
				c0-33.084-26.916-60-60-60H121C87.916,0,61,26.916,61,60v31c0,51.519,58.308,100.533,100.883,136.323
				c5.772,4.852,11.223,9.434,15.99,13.581c4.529,3.941,7.127,9.443,7.127,15.097c0,5.653-2.597,11.155-7.127,15.096
				c-4.767,4.147-10.218,8.729-15.99,13.581C119.308,320.467,61,369.481,61,421v31c0,33.084,26.916,60,60,60h270
				c33.084,0,60-26.916,60-60c0-11.046-8.954-20-20-20c-11.046,0-20,8.954-20,20c0,11.028-8.972,20-20,20H121
				c-11.028,0-20-8.972-20-20v-31c0-32.888,54.224-78.469,86.621-105.704c5.905-4.963,11.483-9.652,16.506-14.022
				C217.392,289.733,225,273.231,225,256c0-17.232-7.608-33.734-20.872-45.275c-5.023-4.369-10.601-9.058-16.506-14.022
				C155.224,169.469,101,123.888,101,91V60c0-11.028,8.972-20,20-20h270c11.028,0,20,8.972,20,20v31
				c0,32.888-54.224,78.469-86.621,105.703c-5.905,4.963-11.483,9.652-16.506,14.022C294.608,222.266,287,238.768,287,256
				s7.608,33.734,20.872,45.274c5.235,4.553,11.067,9.435,17.242,14.604c19.458,16.287,41.511,34.747,58.918,54.387
				c7.326,8.266,19.966,9.028,28.233,1.702c8.266-7.326,9.028-19.966,1.702-28.233c-19.383-21.87-43.667-42.196-63.179-58.529
				c-6.024-5.043-11.715-9.806-16.661-14.109C329.598,267.155,327,261.653,327,256S329.598,244.844,334.127,240.903z"/>
			<path fill="#fff" d="M277.61,185.235c0.361-0.315,14.322-12.307,30.219-26.372C320.288,147.84,312.618,127,296.101,127h-78.202
				c-16.517,0-24.187,20.84-11.728,31.863c15.897,14.066,29.858,26.057,30.219,26.372
				C248.251,195.588,265.748,195.588,277.61,185.235z"/>
		</g>
	</g>
</g>
</svg>
