<?xml version="1.0" encoding="iso-8859-1"?>
<!-- Generator: Adobe Illustrator 19.0.0, SVG Export Plug-In . SVG Version: 6.00 Build 0)  -->
<svg version="1.1" id="Capa_1" xmlns="http://www.w3.org/2000/svg" xmlns:xlink="http://www.w3.org/1999/xlink" x="0px" y="0px"
	 viewBox="0 0 512 512" style="enable-background:new 0 0 512 512;" xml:space="preserve">
<g>
	<g>
		<path fill="#fff" d="M503.17,240.148L289.423,107.799c-5.735-3.548-12.98-3.722-18.883-0.435c-5.909,3.293-9.569,9.525-9.569,16.286v264.699
			c0,6.76,3.66,12.993,9.569,16.286c2.827,1.572,5.953,2.355,9.072,2.355c3.411,0,6.816-0.932,9.811-2.79L503.17,271.85
			c5.493-3.399,8.83-9.395,8.83-15.851C512,249.543,508.663,243.547,503.17,240.148z M298.252,354.888V157.122l159.695,98.877
			L298.252,354.888z"/>
	</g>
</g>
<g>
	<g>
		<path fill="#fff" d="M242.2,240.148L28.452,107.799c-5.754-3.554-12.98-3.722-18.883-0.435C3.66,110.657,0,116.889,0,123.649v264.699
			c0,6.76,3.66,12.993,9.569,16.286c2.827,1.572,5.953,2.355,9.072,2.355c3.405,0,6.81-0.932,9.811-2.79L242.2,271.85
			c5.487-3.399,8.83-9.395,8.83-15.851C251.029,249.543,247.686,243.547,242.2,240.148z M37.282,354.888V157.122l159.696,98.877
			L37.282,354.888z"/>
	</g>
</g>
</svg>
