<?xml version="1.0" encoding="iso-8859-1"?>
<!-- Generator: Adobe Illustrator 19.0.0, SVG Export Plug-In . SVG Version: 6.00 Build 0)  -->
<svg version="1.1" id="Capa_1" xmlns="http://www.w3.org/2000/svg" xmlns:xlink="http://www.w3.org/1999/xlink" x="0px" y="0px"
	 viewBox="0 0 512 512" style="enable-background:new 0 0 512 512;" xml:space="preserve">
<g>
	<g>
		<path fill="#fff" d="M391.416,0H120.584c-17.778,0-32.242,14.464-32.242,32.242v460.413c0,7.016,3.798,13.477,9.924,16.895
			c2.934,1.638,6.178,2.45,9.421,2.45c3.534,0,7.055-0.961,10.169-2.882l138.182-85.312l138.163,84.693
			c5.971,3.669,13.458,3.817,19.564,0.387c6.107-3.418,9.892-9.872,9.892-16.875V32.242C423.657,14.464,409.194,0,391.416,0z
			 M384.967,457.453l-118.85-72.86c-6.229-3.817-14.07-3.798-20.28,0.032l-118.805,73.35V38.69h257.935V457.453z"/>
	</g>
</g>

</svg>
