<?xml version="1.0" encoding="iso-8859-1"?>
<!-- Generator: Adobe Illustrator 19.0.0, SVG Export Plug-In . SVG Version: 6.00 Build 0)  -->
<svg version="1.1" id="Capa_1" xmlns="http://www.w3.org/2000/svg" xmlns:xlink="http://www.w3.org/1999/xlink" x="0px" y="0px"
	 viewBox="0 0 512 512" style="enable-background:new 0 0 512 512;" xml:space="preserve">
<g>
	<g>
		<path fill="#fff" d="M478.354,146.286H33.646c-12.12,0-21.943,9.823-21.943,21.943v321.829c0,12.12,9.823,21.943,21.943,21.943h444.709
			c12.12,0,21.943-9.823,21.943-21.943V168.229C500.297,156.109,490.474,146.286,478.354,146.286z M456.411,468.114H55.589V190.171
			h400.823V468.114z"/>
	</g>
</g>
<g>
	<g>
		<path fill="#fff" d="M441.783,73.143H70.217c-12.12,0-21.943,9.823-21.943,21.943c0,12.12,9.823,21.943,21.943,21.943h371.566
			c12.12,0,21.943-9.823,21.943-21.943C463.726,82.966,453.903,73.143,441.783,73.143z"/>
	</g>
</g>
<g>
	<g>
		<path fill="#fff" d="M405.211,0H106.789c-12.12,0-21.943,9.823-21.943,21.943c0,12.12,9.823,21.943,21.943,21.943h298.423
			c12.12,0,21.943-9.823,21.943-21.943C427.154,9.823,417.331,0,405.211,0z"/>
	</g>
</g>

</svg>
