<svg id="Layer_1" enable-background="new 0 0 512 512" height="512" viewBox="0 0 512 512" width="512" xmlns="http://www.w3.org/2000/svg"><path fill="#fff" d="m392 512h-272c-66.168 0-120-53.832-120-120v-272c0-66.168 53.832-120 120-120h272c66.168 0 120 53.832 120 120v272c0 66.168-53.832 120-120 120zm-272-472c-44.112 0-80 35.888-80 80v272c0 44.112 35.888 80 80 80h272c44.112 0 80-35.888 80-80v-272c0-44.112-35.888-80-80-80zm206 342c0 11.046-8.954 20-20 20h-100c-26.536-1.056-26.516-38.953 0-40h30v-113c0-11.028-8.972-20-20-20h-10c-26.536-1.056-26.516-38.953 0-40h10c33.084 0 60 26.916 60 60v113h30c11.046 0 20 8.954 20 20zm-70-222c13.807 0 25-11.193 25-25-1.317-33.162-48.688-33.153-50 0 0 13.807 11.193 25 25 25z"/></svg>