<?xml version="1.0" encoding="iso-8859-1"?>
<!-- Generator: Adobe Illustrator 19.0.0, SVG Export Plug-In . SVG Version: 6.00 Build 0)  -->
<svg version="1.1" id="Capa_1" xmlns="http://www.w3.org/2000/svg" xmlns:xlink="http://www.w3.org/1999/xlink" x="0px" y="0px"
	 viewBox="0 0 512 512" style="enable-background:new 0 0 512 512;" xml:space="preserve">
<g>
	<g>
		<path fill="#fff" d="M256,81.077C159.55,81.077,81.077,159.55,81.077,256c0,10.578,8.574,19.152,19.152,19.152s19.152-8.574,19.152-19.158
			c0-75.325,61.287-136.612,136.618-136.612c10.572,0,19.152-8.574,19.152-19.152S266.578,81.077,256,81.077z"/>
	</g>
</g>
<g>
	<g>
		<path fill="#fff" d="M411.771,236.848c-10.578,0-19.152,8.574-19.152,19.152c0,75.325-61.287,136.618-136.618,136.618
			c-10.578,0-19.152,8.574-19.152,19.152c0,10.578,8.574,19.152,19.152,19.152c96.45,0,174.923-78.473,174.923-174.923
			C430.923,245.422,422.349,236.848,411.771,236.848z"/>
	</g>
</g>
<g>
	<g>
		<path fill="#fff" d="M256,0C114.843,0,0,114.843,0,256s114.843,256,256,256s256-114.842,256-256S397.158,0,256,0z M256,473.696
			c-120.039,0-217.696-97.657-217.696-217.696S135.961,38.304,256,38.304s217.696,97.65,217.696,217.689
			S376.039,473.696,256,473.696z"/>
	</g>
</g>
<g>
	<g>
		<path fill="#fff" d="M256,158.318c-53.856,0-97.676,43.814-97.676,97.676s43.814,97.682,97.676,97.682c53.862,0,97.676-43.82,97.676-97.682
			S309.862,158.318,256,158.318z M256,315.378c-32.737,0-59.372-26.634-59.372-59.378c0-32.737,26.634-59.372,59.372-59.372
			c32.744,0,59.372,26.634,59.372,59.372C315.372,288.744,288.737,315.378,256,315.378z"/>
	</g>
</g>
</svg>
