<svg width="397" height="302" viewBox="0 0 397 302" fill="none" xmlns="http://www.w3.org/2000/svg">
<path d="M122.003 95.4765C92.9786 116.871 70.0644 103.118 36.4575 126.04C4.49517 147.841 -3.57918 180.131 1.32297 217.731C5.90544 252.879 25.7644 286.406 63.9542 295.668C114.365 307.893 120.475 283.443 173.941 271.217C227.407 258.992 233.517 286.499 299.203 288.027C363.996 289.535 395.498 227.023 396.969 150.491C398.497 71.026 343.205 -8.47608 264.069 0.729362C198.382 8.37027 151.027 74.082 122.003 95.4765Z" fill="white" fill-opacity="0.3"/>
<rect x="107" y="46" width="192" height="241" rx="9" stroke="white" stroke-width="6"/>
<circle cx="169.5" cy="90.5" r="11.5" fill="white"/>
<circle cx="235.5" cy="90.5" r="11.5" fill="white"/>
<rect x="179" y="129" width="47" height="12" rx="6" fill="white"/>
<rect x="126" y="194" width="154" height="9" rx="4.5" fill="white"/>
<rect x="126" y="222" width="154" height="9" rx="4.5" fill="white"/>
<rect x="126" y="250" width="154" height="9" rx="4.5" fill="white"/>
<circle cx="33.5" cy="176.5" r="7.5" stroke="white" stroke-width="4"/>
<circle cx="43.5" cy="280.5" r="7.5" stroke="white" stroke-width="4"/>
<circle cx="382" cy="196" r="5" stroke="white" stroke-width="4"/>
<rect x="331" y="290" width="19" height="5" rx="2.5" fill="white"/>
<rect x="338" y="302" width="19" height="5" rx="2.5" transform="rotate(-90 338 302)" fill="white"/>
<rect x="370" y="73.2632" width="17" height="4.47368" rx="2.23684" fill="white"/>
<rect x="376.263" y="84" width="17" height="4.47368" rx="2.23684" transform="rotate(-90 376.263 84)" fill="white"/>
<rect x="322" y="41.1578" width="14" height="3.68421" rx="1.84211" fill="white"/>
<rect x="327.158" y="50" width="14" height="3.68421" rx="1.84211" transform="rotate(-90 327.158 50)" fill="white"/>
<rect x="67" y="213.158" width="14" height="3.68421" rx="1.84211" fill="white"/>
<rect x="72.1578" y="222" width="14" height="3.68421" rx="1.84211" transform="rotate(-90 72.1578 222)" fill="white"/>
</svg>
