<svg width="300" height="450" viewBox="0 0 300 450" fill="none" xmlns="http://www.w3.org/2000/svg">
<rect width="300" height="450" fill="#3E3E3E"/>
<path d="M117.088 242.06L123.551 239.716L121.207 233.253L114.744 235.598L117.088 242.06Z" fill="#5A5A5A"/>
<path d="M153.341 237.683L136.614 227.646L127.673 230.901L130.025 237.36L135.886 235.229L153.534 245.817L174.503 231.836L198.125 240.695V276.125H101.875V247.594L110.641 244.404L108.293 237.948L95 242.781V283H205V235.93L173.622 224.164L153.341 237.683Z" fill="#5A5A5A"/>
<path d="M95 173V232.909L109.303 227.704L106.956 221.245L101.875 223.091V179.875H198.125V216.165L173.622 206.976L153.341 220.496L136.614 210.458L126.336 214.195L128.688 220.654L135.886 218.042L153.534 228.629L174.503 214.649L205 226.085V173H95Z" fill="#5A5A5A"/>
<path d="M113.417 218.897L115.766 225.354L122.226 223.004L119.877 216.547L113.417 218.897Z" fill="#5A5A5A"/>
</svg>
