<svg width="264" height="68" viewBox="0 0 264 68" fill="none" xmlns="http://www.w3.org/2000/svg">
<path d="M2.816 0.79999H3.776C4.288 0.79999 4.736 0.991991 5.12 1.37599C5.504 1.75999 5.696 2.20799 5.696 2.71999V63.296H37.76C38.976 63.296 39.584 63.936 39.584 65.216V66.08C39.584 66.592 39.392 67.04 39.008 67.424C38.688 67.808 38.272 68 37.76 68H4.832C2.208 68 0.896004 66.624 0.896004 63.872V2.71999C0.896004 2.20799 1.088 1.75999 1.472 1.37599C1.856 0.991991 2.304 0.79999 2.816 0.79999Z" fill="white"/>
<path d="M67.5223 3.29599C68.0983 1.56799 69.3143 0.703991 71.1703 0.703991C73.0903 0.703991 74.3703 1.59999 75.0103 3.39199L97.0903 65.408C97.1543 65.6 97.1863 65.824 97.1863 66.08C97.1863 67.36 96.5463 68 95.2663 68H94.1143C93.2823 68 92.6743 67.584 92.2903 66.752L71.3623 7.13599L50.3383 66.752C49.9543 67.584 49.3463 68 48.5143 68H47.3623C46.0823 68 45.4423 67.36 45.4423 66.08C45.4423 65.824 45.4743 65.6 45.5383 65.408L67.5223 3.29599ZM63.0103 38.432H79.6183C80.1303 38.432 80.5783 38.624 80.9623 39.008C81.3463 39.328 81.5383 39.776 81.5383 40.352V41.216C81.5383 41.792 81.3463 42.272 80.9623 42.656C80.5783 42.976 80.1303 43.136 79.6183 43.136H63.0103C61.7943 43.136 61.1863 42.496 61.1863 41.216V40.352C61.1863 39.072 61.7943 38.432 63.0103 38.432Z" fill="white"/>
<path d="M151.992 0.511993C153.016 0.511993 153.912 0.863993 154.68 1.56799C155.448 2.20799 155.832 3.23199 155.832 4.63999V66.08C155.832 66.592 155.64 67.04 155.256 67.424C154.936 67.808 154.488 68 153.912 68H153.048C152.472 68 151.992 67.808 151.608 67.424C151.288 67.04 151.128 66.592 151.128 66.08V8.95999L134.424 50.24C133.72 51.904 132.568 52.832 130.968 53.024C129.112 53.024 127.8 52.128 127.032 50.336L109.368 8.57599V66.08C109.368 66.592 109.176 67.04 108.792 67.424C108.408 67.808 107.96 68 107.448 68H106.488C105.976 68 105.528 67.808 105.144 67.424C104.824 67.04 104.664 66.592 104.664 66.08V4.63999C104.664 1.88799 105.912 0.511993 108.408 0.511993C110.136 0.511993 111.416 1.47199 112.248 3.39199L130.68 46.88L148.152 3.39199C149.048 1.47199 150.328 0.511993 151.992 0.511993Z" fill="white"/>
<path d="M172.189 0.79999H187.069C191.549 0.79999 195.677 2.01599 199.453 4.44799C201.437 5.72799 203.037 7.58399 204.253 10.016C205.469 12.448 206.077 15.328 206.077 18.656C206.077 23.712 204.605 27.968 201.661 31.424C198.717 34.816 193.597 36.512 186.301 36.512H179.965C179.389 36.512 178.909 36.32 178.525 35.936C178.205 35.552 178.045 35.104 178.045 34.592V33.728C178.045 32.448 178.685 31.808 179.965 31.808H185.149C192.125 31.808 196.637 30.336 198.685 27.392C200.413 24.96 201.277 22.016 201.277 18.56C201.277 14.016 199.805 10.72 196.861 8.67199C193.981 6.62399 190.557 5.59999 186.589 5.59999H172.765V66.08C172.765 66.592 172.573 67.04 172.189 67.424C171.805 67.808 171.357 68 170.845 68H169.885C169.373 68 168.925 67.808 168.541 67.424C168.157 67.04 167.965 66.592 167.965 66.08V5.02399C167.965 3.35999 168.253 2.23999 168.829 1.66399C169.405 1.08799 170.525 0.79999 172.189 0.79999Z" fill="white"/>
<path d="M234.21 3.29599C234.786 1.56799 236.002 0.703991 237.858 0.703991C239.778 0.703991 241.058 1.59999 241.698 3.39199L263.778 65.408C263.842 65.6 263.874 65.824 263.874 66.08C263.874 67.36 263.234 68 261.954 68H260.802C259.97 68 259.362 67.584 258.978 66.752L238.05 7.13599L217.026 66.752C216.642 67.584 216.034 68 215.202 68H214.05C212.77 68 212.13 67.36 212.13 66.08C212.13 65.824 212.162 65.6 212.226 65.408L234.21 3.29599ZM229.698 38.432H246.306C246.818 38.432 247.266 38.624 247.65 39.008C248.034 39.328 248.226 39.776 248.226 40.352V41.216C248.226 41.792 248.034 42.272 247.65 42.656C247.266 42.976 246.818 43.136 246.306 43.136H229.698C228.482 43.136 227.874 42.496 227.874 41.216V40.352C227.874 39.072 228.482 38.432 229.698 38.432Z" fill="white"/>
</svg>
